<mxfile host="65bd71144e">
    <diagram id="n0IDRr3pbRdeSTAmR26z" name="第 1 页">
        <mxGraphModel dx="1073" dy="840" grid="1" gridSize="10" guides="1" tooltips="1" connect="1" arrows="1" fold="1" page="1" pageScale="1" pageWidth="827" pageHeight="1169" math="0" shadow="0">
            <root>
                <mxCell id="0"/>
                <mxCell id="1" parent="0"/>
                <mxCell id="3" value="&lt;font&gt;B&lt;/font&gt;" style="ellipse;whiteSpace=wrap;html=1;aspect=fixed;fillColor=#FFFFCC;fontColor=#000000;" vertex="1" parent="1">
                    <mxGeometry x="170" y="350" width="60" height="60" as="geometry"/>
                </mxCell>
                <mxCell id="4" value="&lt;font color=&quot;#000000&quot;&gt;A&lt;/font&gt;" style="ellipse;whiteSpace=wrap;html=1;aspect=fixed;fillColor=#FFFFCC;" vertex="1" parent="1">
                    <mxGeometry x="40" y="480" width="60" height="60" as="geometry"/>
                </mxCell>
                <mxCell id="5" value="E" style="ellipse;whiteSpace=wrap;html=1;aspect=fixed;fillColor=#FFFFCC;fontColor=#000000;" vertex="1" parent="1">
                    <mxGeometry x="170" y="480" width="60" height="60" as="geometry"/>
                </mxCell>
                <mxCell id="6" value="G" style="ellipse;whiteSpace=wrap;html=1;aspect=fixed;fillColor=#FFFFCC;fontColor=#000000;" vertex="1" parent="1">
                    <mxGeometry x="170" y="620" width="60" height="60" as="geometry"/>
                </mxCell>
                <mxCell id="7" value="C" style="ellipse;whiteSpace=wrap;html=1;aspect=fixed;fillColor=#FFFFCC;fontColor=#000000;" vertex="1" parent="1">
                    <mxGeometry x="390" y="350" width="60" height="60" as="geometry"/>
                </mxCell>
                <mxCell id="8" value="F" style="ellipse;whiteSpace=wrap;html=1;aspect=fixed;fillColor=#FFFFCC;fontColor=#000000;" vertex="1" parent="1">
                    <mxGeometry x="400" y="480" width="60" height="60" as="geometry"/>
                </mxCell>
                <mxCell id="9" value="" style="endArrow=classic;html=1;exitX=1;exitY=0.5;exitDx=0;exitDy=0;entryX=0;entryY=0.5;entryDx=0;entryDy=0;fontColor=#000000;" edge="1" parent="1" source="5" target="8">
                    <mxGeometry width="50" height="50" relative="1" as="geometry">
                        <mxPoint x="400" y="440" as="sourcePoint"/>
                        <mxPoint x="370" y="500" as="targetPoint"/>
                    </mxGeometry>
                </mxCell>
                <mxCell id="10" value="" style="endArrow=classic;html=1;exitX=1;exitY=0.5;exitDx=0;exitDy=0;fontColor=#000000;" edge="1" parent="1" source="4">
                    <mxGeometry width="50" height="50" relative="1" as="geometry">
                        <mxPoint x="120" y="510" as="sourcePoint"/>
                        <mxPoint x="170" y="510" as="targetPoint"/>
                    </mxGeometry>
                </mxCell>
                <mxCell id="11" value="" style="endArrow=classic;html=1;exitX=1;exitY=0.5;exitDx=0;exitDy=0;fontColor=#000000;" edge="1" parent="1">
                    <mxGeometry width="50" height="50" relative="1" as="geometry">
                        <mxPoint x="230" y="379.5" as="sourcePoint"/>
                        <mxPoint x="390" y="380" as="targetPoint"/>
                    </mxGeometry>
                </mxCell>
                <mxCell id="12" value="" style="endArrow=classic;html=1;exitX=1;exitY=0.5;exitDx=0;exitDy=0;entryX=0;entryY=0.5;entryDx=0;entryDy=0;fontColor=#000000;" edge="1" parent="1">
                    <mxGeometry width="50" height="50" relative="1" as="geometry">
                        <mxPoint x="370" y="379.5" as="sourcePoint"/>
                        <mxPoint x="540" y="379.5" as="targetPoint"/>
                    </mxGeometry>
                </mxCell>
                <mxCell id="13" value="" style="endArrow=classic;html=1;exitX=1;exitY=0.5;exitDx=0;exitDy=0;entryX=0.5;entryY=1;entryDx=0;entryDy=0;fontColor=#000000;" edge="1" parent="1" source="6" target="8">
                    <mxGeometry width="50" height="50" relative="1" as="geometry">
                        <mxPoint x="400" y="570" as="sourcePoint"/>
                        <mxPoint x="570" y="570" as="targetPoint"/>
                        <Array as="points">
                            <mxPoint x="430" y="650"/>
                        </Array>
                    </mxGeometry>
                </mxCell>
                <mxCell id="14" value="" style="endArrow=classic;startArrow=classic;html=1;exitX=0;exitY=0.5;exitDx=0;exitDy=0;entryX=0;entryY=0.5;entryDx=0;entryDy=0;fontColor=#000000;" edge="1" parent="1" source="6" target="3">
                    <mxGeometry width="50" height="50" relative="1" as="geometry">
                        <mxPoint x="350" y="440" as="sourcePoint"/>
                        <mxPoint x="400" y="390" as="targetPoint"/>
                        <Array as="points">
                            <mxPoint x="110" y="650"/>
                            <mxPoint x="110" y="380"/>
                        </Array>
                    </mxGeometry>
                </mxCell>
                <mxCell id="15" value="" style="endArrow=none;html=1;fontColor=#000000;" edge="1" parent="1">
                    <mxGeometry width="50" height="50" relative="1" as="geometry">
                        <mxPoint x="310" y="510" as="sourcePoint"/>
                        <mxPoint x="310" y="380" as="targetPoint"/>
                    </mxGeometry>
                </mxCell>
                <mxCell id="16" value="D" style="ellipse;whiteSpace=wrap;html=1;aspect=fixed;fillColor=#FFFFCC;fontColor=#000000;" vertex="1" parent="1">
                    <mxGeometry x="540" y="350" width="60" height="60" as="geometry"/>
                </mxCell>
                <mxCell id="17" value="&lt;font color=&quot;#000000&quot;&gt;M&lt;/font&gt;" style="ellipse;whiteSpace=wrap;html=1;aspect=fixed;fillColor=#33FF99;fontColor=#66FFB3;" vertex="1" parent="1">
                    <mxGeometry x="550" y="480" width="60" height="60" as="geometry"/>
                </mxCell>
                <mxCell id="19" value="N" style="ellipse;whiteSpace=wrap;html=1;aspect=fixed;fillColor=#33FF99;fontColor=#000000;" vertex="1" parent="1">
                    <mxGeometry x="550" y="600" width="60" height="60" as="geometry"/>
                </mxCell>
                <mxCell id="20" value="" style="endArrow=classic;startArrow=classic;html=1;fontColor=#000000;exitX=0.5;exitY=0;exitDx=0;exitDy=0;" edge="1" parent="1" source="19" target="17">
                    <mxGeometry width="50" height="50" relative="1" as="geometry">
                        <mxPoint x="480" y="440" as="sourcePoint"/>
                        <mxPoint x="530" y="390" as="targetPoint"/>
                    </mxGeometry>
                </mxCell>
                <mxCell id="21" value="&lt;font color=&quot;#ff0000&quot; size=&quot;1&quot;&gt;&lt;b style=&quot;font-size: 13px ; line-height: 1.5&quot;&gt;这样就是没有根对象引用，所以他会被垃圾回收&lt;/b&gt;&lt;/font&gt;" style="text;html=1;strokeColor=none;fillColor=none;align=center;verticalAlign=middle;whiteSpace=wrap;rounded=0;fontColor=#000000;" vertex="1" parent="1">
                    <mxGeometry x="590" y="554.5" width="190" height="30" as="geometry"/>
                </mxCell>
            </root>
        </mxGraphModel>
    </diagram>
</mxfile>